<svg width="881" height="960" viewBox="0 0 881 960" fill="none" xmlns="http://www.w3.org/2000/svg">
<path d="M335.088 768.606C319.259 769.694 303.502 768.438 287.818 764.838C272.6 761.206 259.703 753.907 249.126 742.94C238.083 732.004 231.826 715.829 230.354 694.413C229.298 679.049 232.608 665.958 240.284 655.139C247.527 644.818 253.709 639.482 258.83 639.13C259.761 639.066 260.725 639.467 261.72 640.335C257.786 644.347 254.71 650.639 252.492 659.212C250.741 667.752 250.185 676.678 250.825 685.989C252.137 705.077 259.59 721.639 273.184 735.673C287.244 749.675 306.379 755.844 330.588 754.18C363.178 751.94 391.716 741.793 416.202 723.738C441.186 706.117 463.241 683.317 482.368 655.34C501.992 627.796 520.06 598.021 536.57 566.013C544.424 550.973 551.459 537.625 557.674 525.972C564.324 513.821 570.354 502.881 575.767 493.154C564.156 507.985 550.499 523.658 534.794 540.174C519.556 556.658 503.089 572.29 485.394 587.072C468.133 601.356 449.997 613.127 430.987 622.386C412.475 632.078 393.908 637.564 375.285 638.844C356.662 640.124 340.216 635.641 325.947 625.395C311.677 615.15 303.582 596.06 301.662 568.126C299.87 542.054 303.914 515.815 313.793 489.409C323.641 462.537 337.276 436.34 354.701 410.819C324.648 409.142 299.694 403.373 279.838 393.511C259.981 383.65 249.317 368.011 247.845 346.595C246.821 331.696 250.164 319.071 257.872 308.718C265.548 297.899 275.463 289.032 287.618 282.116C300.238 275.167 313.652 269.568 327.86 265.317C342.535 261.034 356.125 257.995 368.631 256.199C381.603 254.372 391.814 253.203 399.263 252.691C401.591 252.531 406.961 252.396 415.373 252.285C424.219 251.677 433.562 251.503 443.403 251.762C453.677 251.524 462.587 251.847 470.132 252.731C477.677 253.616 481.514 254.99 481.642 256.852C481.77 258.714 480.205 259.757 476.946 259.981C470.893 260.397 464.126 260.628 456.645 260.675C449.132 260.256 441.651 260.302 434.202 260.814C428.615 261.198 423.028 261.582 417.442 261.966C411.855 262.35 406.517 262.951 401.427 263.768C392.148 264.874 380.589 266.838 366.75 269.66C352.879 272.017 339.136 276.236 325.521 282.317C312.339 287.901 301.429 295.901 292.789 306.318C284.118 316.269 280.342 329.392 281.462 345.687C282.646 362.913 290.558 375.935 305.197 384.752C320.269 393.071 339.308 397.844 362.313 399.069C382.403 371.493 405.663 345.804 432.093 322.003C458.491 297.736 485.563 276.463 513.308 258.184C541.519 239.873 568.806 225.134 595.169 213.966C621.997 202.767 645.654 196.463 666.139 195.055C679.64 194.128 692.387 195.824 704.378 200.145C716.337 204.001 722.845 213.611 723.901 228.975C725.149 247.132 719.1 264.621 705.756 281.442C692.877 298.232 675.013 313.96 652.165 328.628C629.317 343.296 603.564 356.526 574.905 368.319C546.214 379.647 516.448 388.943 485.607 396.208C454.766 403.473 425.146 408.082 396.746 410.034L393.952 410.226C375.693 437.208 361.471 465.082 351.286 493.848C341.535 522.117 337.555 549.287 339.347 575.359C340.659 594.447 345.528 607.444 353.955 614.349C362.382 621.254 372.415 624.306 384.054 623.506C395.227 622.739 406.939 619.595 419.19 614.075C431.906 608.523 443.859 602.089 455.05 594.771C466.21 586.987 475.539 579.797 483.037 573.201C500.668 557.488 517.552 541.125 533.691 524.112C550.294 507.067 564.867 491.097 577.408 476.201C590.415 461.274 600.339 449.132 607.18 439.774C615.66 427.03 623.288 415.513 630.065 405.224C637.276 394.437 646.934 388.628 659.038 387.796C666.953 387.252 671.15 390.472 671.63 397.455C672.014 403.042 669.726 407.175 664.764 409.855C653.157 411.121 642.488 415.83 632.758 423.983C623.461 431.639 616.684 441.928 612.427 454.85C606.225 473.519 600.056 492.654 593.919 512.254C587.782 531.854 580.714 551.519 572.714 571.247C559.559 604.427 542.285 635.552 520.895 664.62C499.97 693.657 474.238 717.41 443.7 735.881C413.193 754.817 376.989 765.726 335.088 768.606ZM401.565 398.476C427.139 396.251 454.183 391.585 482.696 384.48C511.177 376.909 538.832 367.524 565.661 356.325C592.955 345.094 617.359 332.658 638.875 319.017C660.824 304.878 678.053 290.129 690.562 274.768C703.04 258.942 708.751 243.347 707.695 227.984C706.959 217.275 702.288 210.58 693.684 207.897C685.546 205.182 676.821 204.144 667.509 204.784C648.421 206.096 627.325 212.224 604.221 223.167C581.085 233.645 557.258 247.679 532.739 265.268C508.687 282.825 485.292 303.144 462.554 326.224C439.784 348.839 419.455 372.923 401.565 398.476Z" fill="#010410"/>
<path d="M268.517 452.792C268.596 434.126 271.229 418.503 276.415 405.925C281.6 393.814 288.407 384.276 296.836 377.311C309.005 368.962 323.022 364.822 338.889 364.889C357.089 364.966 376.199 370.413 396.22 381.231C416.24 392.516 434.376 407.526 450.631 426.261C470.138 448.277 485.898 473.544 497.911 502.062C510.391 530.581 516.563 560.941 516.427 593.141C516.401 599.207 516.143 605.039 515.653 610.637C515.16 616.702 514.435 622.766 513.476 628.828C512.985 634.426 511.807 637.221 509.94 637.214C509.007 637.21 508.547 635.574 508.561 632.308C508.577 628.574 508.827 624.609 509.311 620.411C509.794 616.679 510.044 612.714 510.062 608.514C510.14 589.847 506.489 570.465 499.107 550.367C492.192 530.271 482.939 511.098 471.35 492.849C459.76 474.6 446.994 458.679 433.051 445.087C422.365 433.842 409.112 422.819 393.29 412.019C377.467 401.685 360.23 394.612 341.58 390.8C339.248 390.324 336.684 389.846 333.886 389.368C331.552 389.358 329.219 389.348 326.886 389.338C313.819 389.283 302.835 393.437 293.933 401.799C285.029 410.628 280.535 424.843 280.452 444.443C280.364 465.442 285.181 485.063 294.904 503.304C305.092 522.014 317.851 539.568 333.182 555.966C348.513 572.365 363.849 587.596 379.189 601.661C393.599 615.255 411.27 630.03 432.203 645.985C453.602 661.943 475.699 678.603 498.492 695.966L498.729 639.966L508.496 647.708L508.259 703.707L545.235 733.264C558.721 744.521 572.204 756.478 585.684 769.135C599.63 781.794 612.411 794.214 624.027 806.397C635.64 819.046 644.458 830.517 650.482 840.809C653.376 818.421 656.272 795.8 659.168 772.945C662.532 750.092 664.731 726.535 665.767 702.272C665.785 698.072 665.802 693.872 665.82 689.672C666.305 685.474 666.555 681.509 666.57 677.775C666.702 646.509 663.328 616.861 656.446 588.832C649.562 561.269 636.119 539.979 616.115 524.961C610.533 520.737 604.946 517.68 599.354 515.79C593.762 513.9 588.399 512.944 583.266 512.922C576.733 512.895 570.659 514.502 565.045 517.745C563.171 519.604 561.062 521.695 558.719 524.019C556.842 526.344 555.9 528.44 555.892 530.307C554.033 528.432 553.111 525.862 553.125 522.595C553.139 519.328 553.852 516.065 555.266 512.804C557.145 510.012 559.021 507.686 560.896 505.828C566.049 501.183 571.897 497.707 578.44 495.402C585.45 493.098 592.221 491.96 598.754 491.987C611.821 492.043 622.774 495.356 631.613 501.926C666.039 527.272 683.127 569.811 682.874 629.544C682.858 633.277 682.843 637.011 682.827 640.744C682.809 644.944 682.559 648.909 682.077 652.641C680.064 687.166 676.42 721.218 671.145 754.796C665.868 788.84 663.151 824.529 662.993 861.862C662.906 882.395 663.762 900.832 665.559 917.173C667.822 933.983 671.741 945.2 677.317 950.823L677.311 952.223C677.303 954.09 676.597 955.72 675.191 957.114C674.249 958.977 672.379 959.903 669.579 959.891C661.646 959.857 655.598 955.398 651.435 946.514C647.739 937.632 645.678 928.523 645.251 919.188C645.298 907.988 645.578 896.789 646.092 885.591C647.073 874.395 648.053 863.432 649.031 852.703L649.034 852.003C642.084 840.307 629.315 825.086 610.727 806.341C592.139 787.595 568.883 769.297 540.958 751.446L508.147 730.307L507.964 773.706L498.199 765.265L498.371 724.665C469.979 706.812 442.057 688.261 414.605 669.011C387.153 649.762 362.272 629.356 339.963 607.795C318.121 586.236 300.72 562.596 287.762 536.874C274.802 511.619 268.387 483.592 268.517 452.792Z" fill="#3656E6"/>
<path d="M600.431 460.754C600.341 470.087 599.32 479.177 597.369 488.026C595.421 496.407 592.083 503.842 587.354 510.33C583.571 515.427 578.398 519.578 571.833 522.782C565.264 526.452 556.847 528.238 546.58 528.139C534.448 528.022 525.144 524.899 518.669 518.77C512.19 513.108 508.982 507.01 509.045 500.477C502.561 495.281 493.529 488.194 481.948 479.215C469.9 470.232 456.695 460.305 442.332 449.433C427.974 438.094 413.618 426.523 399.264 414.717C384.444 402.908 371.25 391.814 359.682 381.435C353.212 374.839 346.278 368.006 338.879 360.934C331.484 353.396 325.263 345.169 320.215 336.254C314.705 326.867 311.999 317.04 312.098 306.774C312.174 298.841 314.095 293.259 317.859 290.029C321.628 286.332 326.08 284.508 331.213 284.557C334.013 284.584 336.572 285.308 338.892 286.731C337.909 291.855 338.773 299.097 341.483 308.457C343.727 317.812 348.061 328.121 354.487 339.383C361.836 351.588 371.05 364.044 382.129 376.751C387.724 377.271 396.35 378.054 408.007 379.1C419.202 379.674 432.028 380.497 446.485 381.57C460.476 382.638 474.693 384.408 489.136 386.88C503.117 388.881 515.459 391.567 526.16 394.937C533.604 397.342 541.968 401.155 551.251 406.378C560.068 411.597 568.401 418.677 576.248 427.62C583.634 436.091 588.666 446.64 591.345 459.266C591.506 442.467 589.074 428.443 584.049 417.194C579.024 405.945 573.28 396.556 566.819 389.027C559.896 381.027 554.356 374.673 550.202 369.967C546.504 366.197 541.187 361.013 534.25 354.412C527.314 347.812 522.225 343.096 518.986 340.265C519.004 338.398 520.413 337.479 523.212 337.506C527.412 337.546 530.67 338.511 532.985 340.4C553.796 360.201 569.038 376.681 578.712 389.842C587.466 401.593 593.184 413.549 595.868 425.708C599.018 437.872 600.539 449.554 600.431 460.754ZM586.896 485.125C586.972 477.192 584.009 469.93 578.005 463.338C571.539 456.276 564.134 449.904 555.788 444.224C546.975 438.539 538.852 434.027 531.417 430.689C520.267 425.448 506.086 419.945 488.874 414.179C471.662 408.413 454.214 402.878 436.531 397.575C418.381 392.267 402.789 387.917 389.754 384.524C402.228 397.712 415.868 410.91 430.675 424.12C445.487 436.863 459.607 448.666 473.037 459.529C486.466 470.392 497.581 479.366 506.379 486.451C514.254 492.593 522.609 497.34 531.444 500.692C540.279 504.044 548.662 505.758 556.595 505.834C565.462 505.92 572.713 504.123 578.348 500.443C583.984 496.764 586.833 491.658 586.896 485.125Z" fill="#3656E6"/>
</svg>
